HIERARCHY
ROOT SpineBase
{
  OFFSET 0.000000 0.000000 0.000000
  CHANNELS 6 Xposition Yposition Zposition Zrotation Xrotation Yrotation
  JOINT SpineMid
  {
    OFFSET 0.000000 29.625564 0.000000
    CHANNELS 3 Zrotation Xrotation Yrotation
    JOINT SpineShoulder
    {
      OFFSET -0.044190 21.993566 -0.881741
      CHANNELS 3 Zrotation Xrotation Yrotation
      JOINT Neck
      {
        OFFSET 0.001258 7.276697 -0.608600
        CHANNELS 3 Zrotation Xrotation Yrotation
        JOINT Head
        {
          OFFSET -4.104891 13.691600 -0.896977
          CHANNELS 3 Zrotation Xrotation Yrotation
          End Site
          {
            OFFSET 0 0 0
          }
        }
      }
      JOINT ShoulderLeft
      {
        OFFSET -16.634051 -4.644308 4.195901
        CHANNELS 3 Zrotation Xrotation Yrotation
        JOINT ElbowLeft
        {
          OFFSET -2.147290 -26.991680 2.072035
          CHANNELS 3 Zrotation Xrotation Yrotation
          JOINT WristLeft
          {
            OFFSET -0.082441 -22.314613 -4.200733
            CHANNELS 3 Zrotation Xrotation Yrotation
            JOINT HandLeft
            {
              OFFSET 0.106237 -2.230721 0.562152
              CHANNELS 3 Zrotation Xrotation Yrotation
              JOINT HandTipLeft
              {
                OFFSET 0.053244 -5.348660 -0.947546
                CHANNELS 3 Zrotation Xrotation Yrotation
                End Site
                {
                  OFFSET 0 0 0
                }
              }
              JOINT ThumbLeft
              {
                OFFSET 3.855601 0.714288 -2.675090
                CHANNELS 3 Zrotation Xrotation Yrotation
                End Site
                {
                  OFFSET 0 0 0
                }
              }
            }
          }
        }
      }
      JOINT ShoulderRight
      {
        OFFSET 14.737212 -2.987751 -6.822048
        CHANNELS 3 Zrotation Xrotation Yrotation
        JOINT ElbowRight
        {
          OFFSET 6.473032 -25.497144 0.157775
          CHANNELS 3 Zrotation Xrotation Yrotation
          JOINT WristRight
          {
            OFFSET -1.446514 -22.066767 -5.611469
            CHANNELS 3 Zrotation Xrotation Yrotation
            JOINT HandRight
            {
              OFFSET -0.560449 -3.187721 1.259866
              CHANNELS 3 Zrotation Xrotation Yrotation
              JOINT HandTipRight
              {
                OFFSET 0.540098 -6.113790 -1.055469
                CHANNELS 3 Zrotation Xrotation Yrotation
                End Site
                {
                  OFFSET 0 0 0
                }
              }
              JOINT ThumbRight
              {
                OFFSET -4.094550 1.408362 -0.980216
                CHANNELS 3 Zrotation Xrotation Yrotation
                End Site
                {
                  OFFSET 0 0 0
                }
              }
            }
          }
        }
      }
    }
  }
  JOINT HipLeft
  {
    OFFSET -6.649258 0.466606 -1.474687
    CHANNELS 3 Zrotation Xrotation Yrotation
    JOINT KneeLeft
    {
      OFFSET 4.926152 -30.150100 7.396899
      CHANNELS 3 Zrotation Xrotation Yrotation
      JOINT AnkleLeft
      {
        OFFSET 3.816172 -31.208759 5.403448
        CHANNELS 3 Zrotation Xrotation Yrotation
        JOINT FootLeft
        {
          OFFSET 1.060787 -4.977793 -9.796015
          CHANNELS 3 Zrotation Xrotation Yrotation
          End Site
          {
            OFFSET 0 0 0
          }
        }
      }
    }
  }
  JOINT HipRight
  {
    OFFSET 7.409076 1.115399 -5.349178
    CHANNELS 3 Zrotation Xrotation Yrotation
    JOINT KneeRight
    {
      OFFSET 4.875591 -29.531316 6.484892
      CHANNELS 3 Zrotation Xrotation Yrotation
      JOINT AnkleRight
      {
        OFFSET 0.953533 -31.682014 6.479299
        CHANNELS 3 Zrotation Xrotation Yrotation
        JOINT FootRight
        {
          OFFSET 0.108791 -7.882727 -5.680679
          CHANNELS 3 Zrotation Xrotation Yrotation
          End Site
          {
            OFFSET 0 0 0
          }
        }
      }
    }
  }
}
MOTION
Frames: 12
Frame Time: 0.033333
-39.020682 68.657120 338.602241 -0.000000 0.000000 15.408261 0.000000 0.000000 -15.408261 -0.000000 0.000000 0.000000 -0.000000 0.000000 0.000000 0.000000 0.000000 0.000000 -0.000000 0.000000 0.000000 -0.000000 0.000000 0.000000 -0.000000 0.000000 0.000000 -0.000000 0.000000 0.000000 0.000000 0.000000 0.000000 0.000000 0.000000 0.000000 -0.000000 0.000000 0.000000 -0.000000 0.000000 0.000000 -0.000000 0.000000 0.000000 -0.000000 0.000000 0.000000 0.000000 0.000000 0.000000 0.000000 0.000000 0.000000 0.000000 0.000000 -15.408261 -0.000000 0.000000 0.000000 -0.000000 0.000000 0.000000 0.000000 0.000000 0.000000 0.000000 0.000000 -15.408261 -0.000000 0.000000 0.000000 -0.000000 0.000000 0.000000 0.000000 0.000000 0.000000
-38.922490 68.640938 338.575680 0.215968 -0.091017 15.165007 -0.184638 0.144344 -15.164603 -0.000000 0.000000 0.000000 -0.000000 0.000000 0.000000 0.000000 0.000000 0.000000 -0.482229 -2.120632 0.122564 0.014860 -0.775853 -0.036179 -10.299259 4.790624 -2.030935 13.355885 -6.121534 2.488867 0.000000 0.000000 0.000000 0.000000 0.000000 0.000000 -0.000000 0.000000 0.000000 0.790157 -0.345307 -0.176134 -3.604886 2.704802 -1.275853 1.490065 -4.512719 1.562664 0.000000 0.000000 0.000000 0.000000 0.000000 0.000000 -0.184638 0.144344 -15.164603 -0.000000 0.000000 0.000000 1.928071 -2.948011 -4.586941 0.000000 0.000000 0.000000 -0.184638 0.144344 -15.164603 -0.000000 0.000000 0.000000 -0.951614 -2.140825 0.647248 0.000000 0.000000 0.000000
-38.858100 68.621766 338.554695 0.391909 -0.194636 14.972716 -0.328322 0.289277 -14.971221 -0.000000 0.000000 0.000000 -0.000000 0.000000 0.000000 0.000000 0.000000 0.000000 -0.847048 -3.829740 0.210773 0.047368 -1.243409 -0.080004 -18.462533 9.969656 -2.335821 24.435998 -11.668049 5.121314 0.000000 0.000000 0.000000 0.000000 0.000000 0.000000 0.732252 -0.656262 -0.157623 0.613669 0.039057 -0.144524 -7.570574 6.506826 -2.827268 3.974176 -10.074315 3.595309 0.000000 0.000000 0.000000 0.000000 0.000000 0.000000 -0.328322 0.289277 -14.971221 -0.000000 0.000000 0.000000 3.393762 -5.963607 -8.587379 0.000000 0.000000 0.000000 -0.328322 0.289277 -14.971221 -0.000000 0.000000 0.000000 -1.828805 -3.145228 1.249352 0.000000 0.000000 0.000000
-38.827512 68.599602 338.539287 0.527808 -0.310855 14.831847 -0.430662 0.435596 -14.828778 -0.000000 0.000000 0.000000 -0.000000 0.000000 0.000000 0.000000 0.000000 0.000000 -1.101556 -5.147323 0.274527 0.106479 -1.369819 -0.129327 -24.367022 15.323948 -1.400309 32.936948 -17.001552 7.947662 0.000000 0.000000 0.000000 0.000000 0.000000 0.000000 0.979803 -0.820577 -0.194814 0.688343 0.003786 -0.174688 -11.455859 11.110326 -4.361661 7.119855 -16.403308 5.993633 0.000000 0.000000 0.000000 0.000000 0.000000 0.000000 -0.430662 0.435596 -14.828778 -0.000000 0.000000 0.000000 4.396199 -8.906196 -11.905420 0.000000 0.000000 0.000000 -0.430662 0.435596 -14.828778 -0.000000 0.000000 0.000000 -2.638725 -2.973124 1.826996 0.000000 0.000000 0.000000
-38.830726 68.574448 338.529457 0.623653 -0.439675 14.742773 0.070191 -0.084255 -14.712757 -0.023131 -0.023282 0.030440 -0.689327 0.527283 -0.054594 0.000000 0.000000 0.000000 -1.944836 -5.562258 0.277549 0.198392 -1.135425 -0.183473 -28.060751 21.008944 0.353431 38.883261 -22.583123 11.062241 0.000000 0.000000 0.000000 0.000000 0.000000 0.000000 0.461842 -0.352751 -0.271796 0.605100 -0.064176 -0.174227 -14.717396 15.852740 -5.615824 10.330598 -22.968178 8.450514 0.000000 0.000000 0.000000 0.000000 0.000000 0.000000 -0.491260 0.583884 -14.737876 -0.000000 0.000000 0.000000 4.969319 -11.671413 -14.490944 0.000000 0.000000 0.000000 -0.491260 0.583884 -14.737876 -0.000000 0.000000 0.000000 -3.388369 -1.610387 2.397591 0.000000 0.000000 0.000000
-38.867741 68.546303 338.525203 0.679434 -0.581095 14.705781 0.068476 -0.072180 -14.673061 -0.034122 -0.034306 0.032189 -0.729179 0.668631 -0.056875 0.000000 0.000000 0.000000 -2.032417 -6.002832 0.312233 0.327285 -0.527899 -0.243517 -29.429447 27.409720 2.632691 42.237703 -29.002480 14.479370 0.000000 0.000000 0.000000 0.000000 0.000000 0.000000 0.520664 -0.164771 -0.265311 0.362459 -0.163663 -0.143203 -16.968277 20.039855 -6.506636 12.963032 -29.319601 10.550914 0.000000 0.000000 0.000000 0.000000 0.000000 0.000000 -0.509709 0.734504 -14.699068 -0.000000 0.000000 0.000000 5.163312 -14.194859 -16.322880 0.000000 0.000000 0.000000 -1.158082 0.256280 -14.907965 0.503486 0.628939 0.211739 -4.083416 0.928547 2.973303 0.000000 0.000000 0.000000
-38.935375 68.513226 338.522057 0.698269 -0.741987 14.708439 0.040711 -0.043134 -14.675588 -0.053115 -0.051420 0.030497 -0.694673 0.825529 -0.053271 0.000000 0.000000 0.000000 -1.928501 -6.040827 0.341027 0.431665 0.509161 -0.297444 -30.330553 39.571920 7.286344 47.320787 -42.608892 22.311859 0.000000 0.000000 0.000000 0.000000 0.000000 0.000000 0.569104 0.235403 -0.206235 0.135462 -0.430411 -0.143923 -17.850023 23.990717 -7.018745 14.122666 -37.718574 11.706557 0.000000 0.000000 0.000000 0.000000 0.000000 0.000000 -0.487064 0.894922 -14.700114 -0.000000 0.000000 0.000000 3.669798 -13.262763 -12.337994 0.000000 0.000000 0.000000 -1.121222 0.335578 -14.912580 0.468805 0.703709 0.216397 -5.285742 7.975776 4.086363 0.000000 0.000000 0.000000
-39.050118 68.477711 338.532584 0.657900 -0.912895 14.795143 0.015844 0.000947 -14.764904 -0.071773 -0.070982 0.026210 -0.600371 0.979481 -0.045283 0.000000 0.000000 0.000000 -1.672113 -5.660540 0.355745 0.864451 2.633927 -0.432501 -26.608780 51.319251 10.792370 47.651314 -54.265769 28.748159 0.000000 0.000000 0.000000 0.000000 0.000000 0.000000 0.550303 0.710858 -0.122902 -0.463722 -0.627593 -0.050686 -18.670802 26.696637 -7.661592 17.457682 -44.880924 13.537820 0.000000 0.000000 0.000000 0.000000 0.000000 0.000000 -0.403049 1.050591 -14.786207 -0.000000 0.000000 0.000000 3.605884 -15.747530 -13.519127 0.000000 0.000000 0.000000 -0.403049 1.050591 -14.786207 0.619735 0.531601 0.139978 -6.718890 11.698755 4.674857 0.000000 0.000000 0.000000
-39.195481 68.437904 338.550287 0.583989 -1.088074 14.935175 -0.002828 0.057725 -14.909120 -0.087640 -0.087285 0.020732 -0.477973 1.120687 -0.035524 0.000000 0.000000 0.000000 -1.260369 -4.962045 0.360957 1.232316 4.554943 -0.577603 -10.229230 57.374718 6.962579 28.455661 -64.078239 19.255704 0.000000 0.000000 0.000000 0.000000 0.000000 0.000000 0.528958 1.161958 -0.038709 -1.006711 -0.041771 -0.017240 -18.341572 27.235006 -8.253175 16.861691 -48.710935 13.450968 0.000000 0.000000 0.000000 0.000000 0.000000 0.000000 -0.283921 1.201793 -14.926652 -0.000000 0.000000 0.000000 3.210543 -18.956471 -14.478620 0.000000 0.000000 0.000000 -0.283921 1.201793 -14.926652 -0.000000 0.000000 0.000000 -4.170018 10.797911 3.324446 0.000000 0.000000 0.000000
-39.349016 68.400060 338.568879 0.494696 -1.259650 15.099729 -0.016486 0.116971 -15.078582 -0.102220 -0.097885 0.014802 -0.345455 1.249106 -0.025366 0.000000 0.000000 0.000000 -0.692744 -3.946624 0.352176 1.391499 6.385087 -0.696574 8.033864 54.666867 0.916391 -5.885978 -59.884290 -6.036892 0.000000 0.000000 0.000000 0.000000 0.000000 0.000000 0.502659 1.619825 0.052713 -2.688131 -0.651520 0.367799 -16.783422 29.155636 -8.827145 14.086686 -52.252712 12.221851 0.000000 0.000000 0.000000 0.000000 0.000000 0.000000 -0.149551 1.345006 -15.092536 -0.000000 0.000000 0.000000 3.129850 -22.182224 -16.550928 0.000000 0.000000 0.000000 -0.149551 1.345006 -15.092536 -0.000000 0.000000 0.000000 -3.137116 11.952158 2.562553 0.000000 0.000000 0.000000
-39.479003 68.366952 338.578611 0.425328 -1.395967 15.257306 -0.029357 0.155820 -15.240023 -0.109926 -0.092594 0.010443 -0.245565 1.346074 -0.017904 0.000000 0.000000 0.000000 -0.092512 -2.809319 0.325705 1.709304 8.464018 -0.890893 18.930363 52.191592 -1.042163 -28.340658 -53.146990 -21.527723 0.000000 0.000000 0.000000 0.000000 0.000000 0.000000 0.422028 2.039421 0.142349 -3.880963 -0.810633 0.597916 -14.944585 28.696512 -9.202695 11.958827 -49.268283 11.485860 0.000000 0.000000 0.000000 0.000000 0.000000 0.000000 -0.043039 1.458678 -15.251576 -0.000000 0.000000 0.000000 3.320263 -25.143316 -19.620669 0.000000 0.000000 0.000000 0.376591 0.699279 -15.229507 -0.604288 0.622544 -0.026689 -1.996588 14.909169 1.743098 0.000000 0.000000 0.000000
-39.559422 68.345793 338.580771 0.383366 -1.495260 15.381793 -0.028954 0.178115 -15.366639 -0.113560 -0.094923 0.008310 0.646056 1.280446 -0.022516 0.000000 0.000000 0.000000 0.480015 -1.680371 0.285947 2.037350 10.380507 -1.113660 25.085859 47.283916 -0.139605 -39.877587 -44.991695 -27.779794 0.000000 0.000000 0.000000 0.000000 0.000000 0.000000 0.328808 2.323831 0.199716 -5.014348 -0.974960 0.837214 -14.057930 28.609369 -9.644496 11.035979 -45.321323 11.765760 0.000000 0.000000 0.000000 0.000000 0.000000 0.000000 0.026942 1.543377 -15.377153 -0.000000 0.000000 0.000000 2.819177 -20.829662 -14.710850 0.000000 0.000000 0.000000 0.737234 0.757324 -15.289524 -0.892254 0.571044 -0.097443 -3.286935 17.613420 2.810473 0.000000 0.000000 0.000000
